# xmcd
#
# Track frame offsets: 
#        150
#        18552
#        35633
#        57778
#        74905
#        93941
#        113838
#        131710
#        149823
#        166522
#        180106
#        209937
#        228870
#        250324
#        270097
#        288817
#
# Disc length: 4039 seconds
#
# Revision: 2
# Processed by: cddbd v1.5.2PL0 Copyright (c) Steve Scherf et al.
# Submitted via: ExactAudioCopy v1.1
#
DISCID=e70fc510
DTITLE=???? - The Best of Anzenchitai and Koji Tamaki's Cover Collection
DTITLE=s [CD1]
DYEAR=2010
DGENRE=Pop
TTITLE0=????? (????????) - ???
TTITLE1=??? (?????) - ???
TTITLE2=??? (????) - ???
TTITLE3=??? (????...) - ???
TTITLE4=????? (Julie) - ???
TTITLE5=?? (??????????) - ???
TTITLE6=????? (Friend) - ???
TTITLE7=????? (????) - ??
TTITLE8=?? (????) - ???
TTITLE9=?? (??) - ???
TTITLE10=??? (?????) - ???
TTITLE11=??????????? (Star) - ??
TTITLE12=????? (???????) - ???
TTITLE13=???? (??????????) - ??????? 
TTITLE14=???? (???????????) - ???
TTITLE15=????? (????) - ???
EXTD=YEAR: 2010
EXTT0=
EXTT1=
EXTT2=
EXTT3=
EXTT4=
EXTT5=
EXTT6=
EXTT7=
EXTT8=
EXTT9=
EXTT10=
EXTT11=
EXTT12=
EXTT13=
EXTT14=
EXTT15=
PLAYORDER=
